<?xml version="1.0" encoding="UTF-8" ?>
<svg version="1.1" width="48" height="56" xmlns="http://www.w3.org/2000/svg" shape-rendering="crispEdges">
<rect x="12" y="0" width="4" height="4" fill="#FFFFFF" />
<rect x="16" y="0" width="4" height="4" fill="#FFFFFF" />
<rect x="20" y="0" width="4" height="4" fill="#FFFFFF" />
<rect x="24" y="0" width="4" height="4" fill="#FFFFFF" />
<rect x="28" y="0" width="4" height="4" fill="#FFFFFF" />
<rect x="32" y="0" width="4" height="4" fill="#FFFFFF" />
<rect x="8" y="4" width="4" height="4" fill="#FFFFFF" />
<rect x="12" y="4" width="4" height="4" fill="#FFFFFF" />
<rect x="16" y="4" width="4" height="4" fill="#FFFFFF" />
<rect x="20" y="4" width="4" height="4" fill="#FFFFFF" />
<rect x="24" y="4" width="4" height="4" fill="#FFFFFF" />
<rect x="28" y="4" width="4" height="4" fill="#FFFFFF" />
<rect x="32" y="4" width="4" height="4" fill="#FFFFFF" />
<rect x="36" y="4" width="4" height="4" fill="#FFFFFF" />
<rect x="8" y="8" width="4" height="4" fill="#FFFFFF" />
<rect x="12" y="8" width="4" height="4" fill="#FFFFFF" />
<rect x="32" y="8" width="4" height="4" fill="#FFFFFF" />
<rect x="36" y="8" width="4" height="4" fill="#FFFFFF" />
<rect x="8" y="12" width="4" height="4" fill="#FFFFFF" />
<rect x="12" y="12" width="4" height="4" fill="#FFFFFF" />
<rect x="36" y="12" width="4" height="4" fill="#C0CBDC" />
<rect x="8" y="16" width="4" height="4" fill="#C0CBDC" />
<rect x="12" y="16" width="4" height="4" fill="#C0CBDC" />
<rect x="0" y="20" width="4" height="4" fill="#FFFFFF" />
<rect x="4" y="20" width="4" height="4" fill="#FFFFFF" />
<rect x="8" y="20" width="4" height="4" fill="#FFFFFF" />
<rect x="12" y="20" width="4" height="4" fill="#FFFFFF" />
<rect x="16" y="20" width="4" height="4" fill="#FFFFFF" />
<rect x="20" y="20" width="4" height="4" fill="#FFFFFF" />
<rect x="24" y="20" width="4" height="4" fill="#FFFFFF" />
<rect x="28" y="20" width="4" height="4" fill="#FFFFFF" />
<rect x="32" y="20" width="4" height="4" fill="#FFFFFF" />
<rect x="36" y="20" width="4" height="4" fill="#FFFFFF" />
<rect x="40" y="20" width="4" height="4" fill="#FFFFFF" />
<rect x="44" y="20" width="4" height="4" fill="#FFFFFF" />
<rect x="0" y="24" width="4" height="4" fill="#FFFFFF" />
<rect x="4" y="24" width="4" height="4" fill="#FFFFFF" />
<rect x="8" y="24" width="4" height="4" fill="#FFFFFF" />
<rect x="12" y="24" width="4" height="4" fill="#FFFFFF" />
<rect x="16" y="24" width="4" height="4" fill="#FFFFFF" />
<rect x="20" y="24" width="4" height="4" fill="#FFFFFF" />
<rect x="24" y="24" width="4" height="4" fill="#FFFFFF" />
<rect x="28" y="24" width="4" height="4" fill="#FFFFFF" />
<rect x="32" y="24" width="4" height="4" fill="#FFFFFF" />
<rect x="36" y="24" width="4" height="4" fill="#FFFFFF" />
<rect x="40" y="24" width="4" height="4" fill="#FFFFFF" />
<rect x="44" y="24" width="4" height="4" fill="#FFFFFF" />
<rect x="0" y="28" width="4" height="4" fill="#FFFFFF" />
<rect x="4" y="28" width="4" height="4" fill="#FFFFFF" />
<rect x="8" y="28" width="4" height="4" fill="#FFFFFF" />
<rect x="12" y="28" width="4" height="4" fill="#FFFFFF" />
<rect x="16" y="28" width="4" height="4" fill="#FFFFFF" />
<rect x="28" y="28" width="4" height="4" fill="#FFFFFF" />
<rect x="32" y="28" width="4" height="4" fill="#FFFFFF" />
<rect x="36" y="28" width="4" height="4" fill="#FFFFFF" />
<rect x="40" y="28" width="4" height="4" fill="#FFFFFF" />
<rect x="44" y="28" width="4" height="4" fill="#FFFFFF" />
<rect x="0" y="32" width="4" height="4" fill="#C0CBDC" />
<rect x="4" y="32" width="4" height="4" fill="#FFFFFF" />
<rect x="8" y="32" width="4" height="4" fill="#FFFFFF" />
<rect x="12" y="32" width="4" height="4" fill="#FFFFFF" />
<rect x="16" y="32" width="4" height="4" fill="#FFFFFF" />
<rect x="28" y="32" width="4" height="4" fill="#FFFFFF" />
<rect x="32" y="32" width="4" height="4" fill="#FFFFFF" />
<rect x="36" y="32" width="4" height="4" fill="#FFFFFF" />
<rect x="40" y="32" width="4" height="4" fill="#FFFFFF" />
<rect x="44" y="32" width="4" height="4" fill="#FFFFFF" />
<rect x="0" y="36" width="4" height="4" fill="#C0CBDC" />
<rect x="4" y="36" width="4" height="4" fill="#FFFFFF" />
<rect x="8" y="36" width="4" height="4" fill="#FFFFFF" />
<rect x="12" y="36" width="4" height="4" fill="#FFFFFF" />
<rect x="16" y="36" width="4" height="4" fill="#C0CBDC" />
<rect x="32" y="36" width="4" height="4" fill="#FFFFFF" />
<rect x="36" y="36" width="4" height="4" fill="#FFFFFF" />
<rect x="40" y="36" width="4" height="4" fill="#FFFFFF" />
<rect x="44" y="36" width="4" height="4" fill="#FFFFFF" />
<rect x="0" y="40" width="4" height="4" fill="#C0CBDC" />
<rect x="4" y="40" width="4" height="4" fill="#FFFFFF" />
<rect x="8" y="40" width="4" height="4" fill="#FFFFFF" />
<rect x="12" y="40" width="4" height="4" fill="#FFFFFF" />
<rect x="16" y="40" width="4" height="4" fill="#C0CBDC" />
<rect x="32" y="40" width="4" height="4" fill="#FFFFFF" />
<rect x="36" y="40" width="4" height="4" fill="#FFFFFF" />
<rect x="40" y="40" width="4" height="4" fill="#FFFFFF" />
<rect x="44" y="40" width="4" height="4" fill="#FFFFFF" />
<rect x="0" y="44" width="4" height="4" fill="#C0CBDC" />
<rect x="4" y="44" width="4" height="4" fill="#FFFFFF" />
<rect x="8" y="44" width="4" height="4" fill="#FFFFFF" />
<rect x="12" y="44" width="4" height="4" fill="#FFFFFF" />
<rect x="16" y="44" width="4" height="4" fill="#FFFFFF" />
<rect x="20" y="44" width="4" height="4" fill="#C0CBDC" />
<rect x="24" y="44" width="4" height="4" fill="#C0CBDC" />
<rect x="28" y="44" width="4" height="4" fill="#FFFFFF" />
<rect x="32" y="44" width="4" height="4" fill="#FFFFFF" />
<rect x="36" y="44" width="4" height="4" fill="#FFFFFF" />
<rect x="40" y="44" width="4" height="4" fill="#FFFFFF" />
<rect x="44" y="44" width="4" height="4" fill="#FFFFFF" />
<rect x="0" y="48" width="4" height="4" fill="#C0CBDC" />
<rect x="4" y="48" width="4" height="4" fill="#FFFFFF" />
<rect x="8" y="48" width="4" height="4" fill="#FFFFFF" />
<rect x="12" y="48" width="4" height="4" fill="#FFFFFF" />
<rect x="16" y="48" width="4" height="4" fill="#FFFFFF" />
<rect x="20" y="48" width="4" height="4" fill="#FFFFFF" />
<rect x="24" y="48" width="4" height="4" fill="#FFFFFF" />
<rect x="28" y="48" width="4" height="4" fill="#FFFFFF" />
<rect x="32" y="48" width="4" height="4" fill="#FFFFFF" />
<rect x="36" y="48" width="4" height="4" fill="#FFFFFF" />
<rect x="40" y="48" width="4" height="4" fill="#FFFFFF" />
<rect x="44" y="48" width="4" height="4" fill="#FFFFFF" />
<rect x="4" y="52" width="4" height="4" fill="#C0CBDC" />
<rect x="8" y="52" width="4" height="4" fill="#C0CBDC" />
<rect x="12" y="52" width="4" height="4" fill="#C0CBDC" />
<rect x="16" y="52" width="4" height="4" fill="#C0CBDC" />
<rect x="20" y="52" width="4" height="4" fill="#C0CBDC" />
<rect x="24" y="52" width="4" height="4" fill="#C0CBDC" />
<rect x="28" y="52" width="4" height="4" fill="#C0CBDC" />
<rect x="32" y="52" width="4" height="4" fill="#C0CBDC" />
<rect x="36" y="52" width="4" height="4" fill="#C0CBDC" />
<rect x="40" y="52" width="4" height="4" fill="#C0CBDC" />
</svg>