<?xml version="1.0" encoding="UTF-8" ?>
<svg version="1.1" width="24" height="24" xmlns="http://www.w3.org/2000/svg" shape-rendering="crispEdges">
<rect x="4" y="0" width="4" height="4" fill="#FFFFFF" />
<rect x="8" y="0" width="4" height="4" fill="#FFFFFF" />
<rect x="12" y="0" width="4" height="4" fill="#FFFFFF" />
<rect x="16" y="0" width="4" height="4" fill="#FFFFFF" />
<rect x="0" y="4" width="4" height="4" fill="#C0CBDC" />
<rect x="20" y="4" width="4" height="4" fill="#FFFFFF" />
<rect x="8" y="8" width="4" height="4" fill="#FFFFFF" />
<rect x="12" y="8" width="4" height="4" fill="#FFFFFF" />
<rect x="4" y="12" width="4" height="4" fill="#C0CBDC" />
<rect x="8" y="12" width="4" height="4" fill="#FFFFFF" />
<rect x="12" y="12" width="4" height="4" fill="#FFFFFF" />
<rect x="16" y="12" width="4" height="4" fill="#FFFFFF" />
<rect x="4" y="16" width="4" height="4" fill="#C0CBDC" />
<rect x="8" y="16" width="4" height="4" fill="#FFFFFF" />
<rect x="12" y="16" width="4" height="4" fill="#FFFFFF" />
<rect x="16" y="16" width="4" height="4" fill="#FFFFFF" />
<rect x="8" y="20" width="4" height="4" fill="#C0CBDC" />
<rect x="12" y="20" width="4" height="4" fill="#C0CBDC" />
</svg>