<?xml version="1.0" encoding="UTF-8" ?>
<svg version="1.1" width="56" height="16" xmlns="http://www.w3.org/2000/svg" shape-rendering="crispEdges">
<rect x="4" y="0" width="4" height="4" fill="#FFFFFF" />
<rect x="8" y="0" width="4" height="4" fill="#FFFFFF" />
<rect x="24" y="0" width="4" height="4" fill="#FFFFFF" />
<rect x="28" y="0" width="4" height="4" fill="#FFFFFF" />
<rect x="44" y="0" width="4" height="4" fill="#FFFFFF" />
<rect x="48" y="0" width="4" height="4" fill="#FFFFFF" />
<rect x="0" y="4" width="4" height="4" fill="#C0CBDC" />
<rect x="4" y="4" width="4" height="4" fill="#FFFFFF" />
<rect x="8" y="4" width="4" height="4" fill="#FFFFFF" />
<rect x="12" y="4" width="4" height="4" fill="#FFFFFF" />
<rect x="20" y="4" width="4" height="4" fill="#C0CBDC" />
<rect x="24" y="4" width="4" height="4" fill="#FFFFFF" />
<rect x="28" y="4" width="4" height="4" fill="#FFFFFF" />
<rect x="32" y="4" width="4" height="4" fill="#FFFFFF" />
<rect x="40" y="4" width="4" height="4" fill="#C0CBDC" />
<rect x="44" y="4" width="4" height="4" fill="#FFFFFF" />
<rect x="48" y="4" width="4" height="4" fill="#FFFFFF" />
<rect x="52" y="4" width="4" height="4" fill="#FFFFFF" />
<rect x="0" y="8" width="4" height="4" fill="#C0CBDC" />
<rect x="4" y="8" width="4" height="4" fill="#FFFFFF" />
<rect x="8" y="8" width="4" height="4" fill="#FFFFFF" />
<rect x="12" y="8" width="4" height="4" fill="#FFFFFF" />
<rect x="20" y="8" width="4" height="4" fill="#C0CBDC" />
<rect x="24" y="8" width="4" height="4" fill="#FFFFFF" />
<rect x="28" y="8" width="4" height="4" fill="#FFFFFF" />
<rect x="32" y="8" width="4" height="4" fill="#FFFFFF" />
<rect x="40" y="8" width="4" height="4" fill="#C0CBDC" />
<rect x="44" y="8" width="4" height="4" fill="#FFFFFF" />
<rect x="48" y="8" width="4" height="4" fill="#FFFFFF" />
<rect x="52" y="8" width="4" height="4" fill="#FFFFFF" />
<rect x="4" y="12" width="4" height="4" fill="#C0CBDC" />
<rect x="8" y="12" width="4" height="4" fill="#C0CBDC" />
<rect x="24" y="12" width="4" height="4" fill="#C0CBDC" />
<rect x="28" y="12" width="4" height="4" fill="#C0CBDC" />
<rect x="44" y="12" width="4" height="4" fill="#C0CBDC" />
<rect x="48" y="12" width="4" height="4" fill="#C0CBDC" />
</svg>