<?xml version="1.0" encoding="UTF-8" ?>
<svg version="1.1" width="56" height="52" xmlns="http://www.w3.org/2000/svg" shape-rendering="crispEdges">
<rect x="24" y="0" width="4" height="4" fill="#FFFFFF" />
<rect x="28" y="0" width="4" height="4" fill="#FFFFFF" />
<rect x="20" y="4" width="4" height="4" fill="#FFFFFF" />
<rect x="24" y="4" width="4" height="4" fill="#FFFFFF" />
<rect x="28" y="4" width="4" height="4" fill="#FFFFFF" />
<rect x="32" y="4" width="4" height="4" fill="#FFFFFF" />
<rect x="16" y="8" width="4" height="4" fill="#FFFFFF" />
<rect x="20" y="8" width="4" height="4" fill="#FFFFFF" />
<rect x="24" y="8" width="4" height="4" fill="#FFFFFF" />
<rect x="28" y="8" width="4" height="4" fill="#FFFFFF" />
<rect x="32" y="8" width="4" height="4" fill="#FFFFFF" />
<rect x="36" y="8" width="4" height="4" fill="#FFFFFF" />
<rect x="12" y="12" width="4" height="4" fill="#FFFFFF" />
<rect x="16" y="12" width="4" height="4" fill="#FFFFFF" />
<rect x="20" y="12" width="4" height="4" fill="#FFFFFF" />
<rect x="24" y="12" width="4" height="4" fill="#FFFFFF" />
<rect x="28" y="12" width="4" height="4" fill="#FFFFFF" />
<rect x="32" y="12" width="4" height="4" fill="#FFFFFF" />
<rect x="36" y="12" width="4" height="4" fill="#FFFFFF" />
<rect x="40" y="12" width="4" height="4" fill="#FFFFFF" />
<rect x="24" y="16" width="4" height="4" fill="#C0CBDC" />
<rect x="28" y="16" width="4" height="4" fill="#FFFFFF" />
<rect x="24" y="20" width="4" height="4" fill="#C0CBDC" />
<rect x="28" y="20" width="4" height="4" fill="#FFFFFF" />
<rect x="24" y="24" width="4" height="4" fill="#C0CBDC" />
<rect x="28" y="24" width="4" height="4" fill="#FFFFFF" />
<rect x="24" y="28" width="4" height="4" fill="#C0CBDC" />
<rect x="28" y="28" width="4" height="4" fill="#FFFFFF" />
<rect x="24" y="32" width="4" height="4" fill="#C0CBDC" />
<rect x="28" y="32" width="4" height="4" fill="#C0CBDC" />
<rect x="0" y="36" width="4" height="4" fill="#FFFFFF" />
<rect x="4" y="36" width="4" height="4" fill="#FFFFFF" />
<rect x="48" y="36" width="4" height="4" fill="#FFFFFF" />
<rect x="52" y="36" width="4" height="4" fill="#FFFFFF" />
<rect x="0" y="40" width="4" height="4" fill="#C0CBDC" />
<rect x="4" y="40" width="4" height="4" fill="#FFFFFF" />
<rect x="8" y="40" width="4" height="4" fill="#FFFFFF" />
<rect x="44" y="40" width="4" height="4" fill="#FFFFFF" />
<rect x="48" y="40" width="4" height="4" fill="#FFFFFF" />
<rect x="52" y="40" width="4" height="4" fill="#FFFFFF" />
<rect x="0" y="44" width="4" height="4" fill="#C0CBDC" />
<rect x="4" y="44" width="4" height="4" fill="#FFFFFF" />
<rect x="8" y="44" width="4" height="4" fill="#FFFFFF" />
<rect x="12" y="44" width="4" height="4" fill="#FFFFFF" />
<rect x="16" y="44" width="4" height="4" fill="#FFFFFF" />
<rect x="20" y="44" width="4" height="4" fill="#FFFFFF" />
<rect x="24" y="44" width="4" height="4" fill="#FFFFFF" />
<rect x="28" y="44" width="4" height="4" fill="#FFFFFF" />
<rect x="32" y="44" width="4" height="4" fill="#FFFFFF" />
<rect x="36" y="44" width="4" height="4" fill="#FFFFFF" />
<rect x="40" y="44" width="4" height="4" fill="#FFFFFF" />
<rect x="44" y="44" width="4" height="4" fill="#FFFFFF" />
<rect x="48" y="44" width="4" height="4" fill="#FFFFFF" />
<rect x="52" y="44" width="4" height="4" fill="#FFFFFF" />
<rect x="4" y="48" width="4" height="4" fill="#C0CBDC" />
<rect x="8" y="48" width="4" height="4" fill="#FFFFFF" />
<rect x="12" y="48" width="4" height="4" fill="#FFFFFF" />
<rect x="16" y="48" width="4" height="4" fill="#FFFFFF" />
<rect x="20" y="48" width="4" height="4" fill="#FFFFFF" />
<rect x="24" y="48" width="4" height="4" fill="#FFFFFF" />
<rect x="28" y="48" width="4" height="4" fill="#FFFFFF" />
<rect x="32" y="48" width="4" height="4" fill="#FFFFFF" />
<rect x="36" y="48" width="4" height="4" fill="#FFFFFF" />
<rect x="40" y="48" width="4" height="4" fill="#FFFFFF" />
<rect x="44" y="48" width="4" height="4" fill="#FFFFFF" />
<rect x="48" y="48" width="4" height="4" fill="#FFFFFF" />
</svg>